<svg xmlns="http://www.w3.org/2000/svg" version="1.1" xmlns:xlink="http://www.w3.org/1999/xlink" width="1024" height="1024"><svg xmlns="http://www.w3.org/2000/svg" version="1.1" xmlns:xlink="http://www.w3.org/1999/xlink" width="1024" height="1024"><svg version="1.1" xmlns="http://www.w3.org/2000/svg" width="1024" height="1024">
<path d="M0 0 C337.92 0 675.84 0 1024 0 C1024 337.92 1024 675.84 1024 1024 C686.08 1024 348.16 1024 0 1024 C0 686.08 0 348.16 0 0 Z " fill="#0C0B0B" transform="translate(0,0)"></path>
<path d="M0 0 C1.23621094 0.268125 2.47242188 0.53625 3.74609375 0.8125 C23.45896153 5.25561148 43.44348094 13.39864514 55.4375 30.5625 C60.54006054 38.96076536 62.06246912 46.07964223 61 56 C58.89437669 64.45818176 54.3234285 72.10405184 46.9375 76.875 C45.6500861 77.627966 44.3355246 78.3360976 43 79 C42.28070313 79.36351562 41.56140625 79.72703125 40.8203125 80.1015625 C32.02509966 82.9033616 20.53215228 82.37388416 12.25 78.4375 C8.13929508 76.01776372 4.97041346 73.26397065 1.78515625 69.7421875 C-5.49539766 62.63687669 -13.12974489 60.66936352 -22.95703125 60.7890625 C-28.76632289 61.19176051 -33.04728421 62.55719674 -36.9375 67 C-40.26907047 71.84592069 -40.82655113 76.26057757 -40 82 C-36.76495533 89.65135045 -31.23026637 93.73738427 -23.6796875 96.8828125 C-23.07389862 97.13588165 -22.46810974 97.38895081 -21.84396362 97.64968872 C-15.35901065 100.32594456 -8.77126503 102.72442865 -2.18026733 105.12393188 C9.56720848 109.41687927 21.10768096 113.79137815 32 120 C32.99 120.5465625 33.98 121.093125 35 121.65625 C42.70399021 126.19304423 50.6966013 132.64095374 55.4375 140.33203125 C56.9587214 142.27432577 56.9587214 142.27432577 59.84375 142.60546875 C64.08568011 141.79173216 65.8889568 139.52175051 68.5 136.3125 C69.40216787 135.2426381 70.30841784 134.17620491 71.21875 133.11328125 C71.60998047 132.63673096 72.00121094 132.16018066 72.40429688 131.66918945 C74 130 74 130 77.0553894 128.10319519 C79.15919842 126.3411938 79.91214854 125.37027234 80.55176926 122.67442799 C80.75190595 119.66162588 80.76132153 116.69885781 80.70947266 113.6796875 C80.71367722 112.5360675 80.71788177 111.39244751 80.72221375 110.21417236 C80.72992397 106.43391174 80.69632563 102.65511185 80.6640625 98.875 C80.66515606 96.24853193 80.66946234 93.62206338 80.67684937 90.99560547 C80.69368043 83.37179352 80.66562114 75.74846073 80.63343048 68.12472534 C80.59231387 57.76214958 80.58269924 47.39980063 80.60194016 37.03717041 C80.60156661 33.16756892 80.57577152 29.29869004 80.54824829 25.42919922 C80.54756352 23.05957038 80.54786614 20.68994099 80.54931641 18.3203125 C80.52763145 16.70397919 80.52763145 16.70397919 80.50550842 15.05499268 C80.54401683 7.76362344 80.54401683 7.76362344 82.84066772 3.91748047 C86.91252014 0.30168796 89.13699426 -0.25381538 94.50341797 -0.2746582 C95.48689209 -0.2823246 95.48689209 -0.2823246 96.49023438 -0.29014587 C98.65764497 -0.30404542 100.82473763 -0.30308464 102.9921875 -0.30078125 C104.50049966 -0.30466853 106.00881072 -0.30900326 107.51712036 -0.31376648 C110.67958116 -0.32122984 113.84193033 -0.320937 117.00439453 -0.31567383 C121.05193524 -0.30988466 125.09901753 -0.32679584 129.14648247 -0.3500185 C132.26236634 -0.36477124 135.37814028 -0.36562537 138.49405289 -0.36250877 C139.98595206 -0.3630214 141.47785749 -0.36824821 142.96972275 -0.37832069 C145.05937958 -0.39069561 147.1481497 -0.38388775 149.23779297 -0.37231445 C150.42565399 -0.37294388 151.61351501 -0.3735733 152.83737183 -0.3742218 C158.78686671 0.32975937 161.91441777 3.67166554 165.53564453 8.0859375 C167.85258685 11.11441829 169.91119732 14.27209826 171.9375 17.5 C172.89903224 19.00956536 173.86131287 20.51865422 174.82421875 22.02734375 C175.3351709 22.83026855 175.84612305 23.63319336 176.37255859 24.46044922 C178.67570233 28.05440378 181.02127388 31.6200118 183.36401367 35.18823242 C189.22620931 44.12229446 194.98034296 53.11442578 200.625 62.1875 C201.86439348 64.17069158 203.10397506 66.15376561 204.34375 68.13671875 C206.18617433 71.08449948 208.02185186 74.03561366 209.83984375 76.99853516 C211.58589742 79.84244353 213.35319227 82.67208887 215.125 85.5 C215.64529785 86.36133545 216.1655957 87.2226709 216.70166016 88.11010742 C217.44101807 89.2776355 217.44101807 89.2776355 218.1953125 90.46875 C218.82977295 91.49645508 218.82977295 91.49645508 219.47705078 92.54492188 C220.96022083 94.2273438 220.96022083 94.2273438 223.49072266 94.46459961 C226.07688496 94.23455737 226.07688496 94.23455737 227.59863281 92.36743164 C228.04561523 91.61840576 228.49259766 90.86937988 228.953125 90.09765625 C229.45779297 89.27281738 229.96246094 88.44797852 230.48242188 87.59814453 C231.23362305 86.31206299 231.23362305 86.31206299 232 85 C232.47501953 84.22124512 232.95003906 83.44249023 233.43945312 82.64013672 C234.89505667 80.25000366 236.32443926 77.84565734 237.75 75.4375 C241.39830261 69.31505465 245.07661213 63.21805992 248.875 57.1875 C252.9169379 50.76674318 256.87409243 44.29723146 260.8125 37.8125 C261.40281006 36.84481689 261.99312012 35.87713379 262.60131836 34.88012695 C265.6092986 29.94828162 268.59453276 25.00517546 271.5390625 20.03515625 C272.67167641 18.14831828 273.80448123 16.26159489 274.9375 14.375 C275.69800659 13.06946167 275.69800659 13.06946167 276.47387695 11.73754883 C277.21190552 10.51781372 277.21190552 10.51781372 277.96484375 9.2734375 C278.3837085 8.56622559 278.80257324 7.85901367 279.23413086 7.13037109 C282.42443371 3.28154175 285.49898636 0.44849082 290.55238342 -0.45770264 C293.58949368 -0.64387786 296.58632249 -0.66694017 299.62890625 -0.62890625 C301.29070168 -0.63252419 301.29070168 -0.63252419 302.98606873 -0.63621521 C305.32009473 -0.6352388 307.65414448 -0.62189472 309.98803711 -0.59692383 C313.55467541 -0.56257535 317.11883984 -0.57628813 320.68554688 -0.59570312 C322.95834385 -0.58880533 325.23113445 -0.57913357 327.50390625 -0.56640625 C328.5665419 -0.57136612 329.62917755 -0.57632599 330.72401428 -0.58143616 C337.70014976 -0.4707396 341.42883088 0.66466909 346.63008213 5.52243233 C348.81392389 9.47202366 348.41579014 13.41604828 348.38768005 17.85568237 C348.39575836 19.37354031 348.39575836 19.37354031 348.40399987 20.92206204 C348.41834169 24.32300123 348.41116024 27.72355461 348.40405273 31.12451172 C348.40975307 33.5586885 348.41671601 35.99286261 348.42485046 38.42703247 C348.44096576 44.35883478 348.44287468 50.29053932 348.43763756 56.22235189 C348.43359754 61.04391737 348.43503742 65.86545155 348.44038582 70.68701553 C348.44113424 71.37303082 348.44188266 72.05904611 348.44265376 72.76584975 C348.44418523 74.15946523 348.44572358 75.55308071 348.44726873 76.94669618 C348.46100056 90.01950707 348.45555157 103.09225815 348.44408352 116.16506769 C348.43415297 128.12389348 348.44708745 140.08256452 348.47101771 152.04136644 C348.49540333 164.32025291 348.50501776 176.59906729 348.49836498 188.87797749 C348.49487123 195.77179471 348.49711493 202.66549292 348.51461601 209.55929184 C348.53086903 216.04192711 348.52616459 222.52433952 348.50731087 229.00696945 C348.50361608 231.38781171 348.50675921 233.76867574 348.51719666 236.14949799 C348.53034692 239.39679253 348.51891099 242.64309872 348.50120544 245.89035034 C348.51081045 246.83509999 348.52041546 247.77984964 348.53031152 248.75322807 C348.46771244 254.32384322 347.78733799 257.62076759 344 262 C340.67741517 264.21505655 339.58288543 264.26307939 335.70581055 264.30639648 C334.08348763 264.33037758 334.08348763 264.33037758 332.4283905 264.35484314 C331.25963882 264.36020584 330.09088715 264.36556854 328.88671875 264.37109375 C327.68441116 264.38012222 326.48210358 264.3891507 325.24336243 264.39845276 C322.69717912 264.41297242 320.15095836 264.42184623 317.60473633 264.42553711 C313.71306237 264.43742193 309.82297928 264.48658531 305.93164062 264.53710938 C303.45834108 264.54657464 300.98503178 264.55380918 298.51171875 264.55859375 C297.34903976 264.57812607 296.18636078 264.59765839 294.9884491 264.61778259 C285.96964492 264.56754099 285.96964492 264.56754099 282.28051758 261.59008789 C278.41726131 257.20241144 278.83701151 253.59828641 278.81054688 247.97631836 C278.80225357 247.04128983 278.79396027 246.10626129 278.78541565 245.14289856 C278.76799324 243.10871527 278.75283245 241.07451167 278.73963928 239.04029655 C278.71866183 235.82633515 278.6916363 232.61247618 278.66296387 229.39857483 C278.59302811 221.41711485 278.53365306 213.43558232 278.47393799 205.45404053 C278.42310122 198.71147394 278.36830824 191.96896265 278.30812073 185.22647285 C278.28144509 182.0505701 278.26069285 178.87466249 278.2401123 175.69871521 C278.22351738 173.76390332 278.20664626 171.82909377 278.18945312 169.89428711 C278.18526871 169.00335358 278.18108429 168.11242004 278.17677307 167.19448853 C278.52245561 163.28270483 278.52245561 163.28270483 277 160 C274.23715472 159.11983223 274.23715472 159.11983223 271 160 C268.35535981 162.84387692 266.51661704 166.15901753 264.5625 169.5 C263.9648584 170.4801709 263.3672168 171.4603418 262.75146484 172.47021484 C261.47700099 174.56078565 260.21097061 176.65651686 258.95263672 178.75683594 C255.74310654 184.08759349 252.42996846 189.35308514 249.125 194.625 C248.17705566 196.14226685 248.17705566 196.14226685 247.20996094 197.69018555 C234.21256882 218.48360728 234.21256882 218.48360728 230 221 C225.63300425 221.88133914 221.93018717 221.40928236 217.875 219.625 C209.53942234 212.01425518 203.84727519 200.74600187 197.6875 191.3125 C196.79247958 189.94325355 195.89729798 188.57411245 195.00195312 187.20507812 C194.33850388 186.190168 194.33850388 186.190168 193.66165161 185.15475464 C192.77393641 183.79973563 191.88404054 182.44614261 190.99191284 181.09402466 C188.71053894 177.63436046 186.46722986 174.15812482 184.27978516 170.63818359 C183.83721878 169.94001022 183.3946524 169.24183685 182.93867493 168.52250671 C182.09531321 167.19176062 181.26543105 165.85234543 180.45133972 164.50349426 C179.2106209 162.48024417 179.2106209 162.48024417 177 160 C174.34293266 159.37419449 174.34293266 159.37419449 172 160 C170.21994661 161.78005339 170.88245348 164.16473441 170.87876892 166.5344696 C170.88243973 167.32867813 170.88611053 168.12288666 170.88989258 168.94116211 C170.88934958 170.6678823 170.88876255 172.39460247 170.88813782 174.12132263 C170.88956598 175.04228666 170.89099415 175.96325069 170.89246559 176.91212273 C170.89597741 181.78326854 170.87017683 186.65429777 170.84960938 191.52539062 C170.82532005 197.72706673 170.80950816 203.92841009 170.82495117 210.13012695 C170.83665486 215.13718145 170.81909551 220.14340631 170.78250694 225.1503315 C170.77392141 227.05394267 170.77592596 228.95763384 170.789011 230.86121941 C170.91032796 249.95127573 170.91032796 249.95127573 164 258 C163.24976563 258.91394531 162.49953125 259.82789063 161.7265625 260.76953125 C147.90675151 274.20403153 130.85622191 279.37358645 111.81665039 279.23242188 C93.99119479 278.86171468 75.74638133 273.93846236 63.02734375 260.69921875 C58.50027924 254.67185541 55.31192456 247.74651299 52 241 C47.39989515 241.46393103 45.21108482 242.25430576 42 245.5625 C22.55806301 263.70614404 -6.01712102 268.71825874 -31.68359375 268.34375 C-56.96710665 267.38467886 -82.07292312 260.08685601 -100.7734375 242.421875 C-109.74485997 232.66348565 -112.58808117 223.61614889 -112.37890625 210.60546875 C-111.48014918 202.05337831 -107.64190259 193.61126253 -101 188 C-91.92976244 181.76421168 -85.04525268 180.05753307 -74 181 C-65.4256646 182.92463014 -59.3437959 187.76516418 -53.0703125 193.63378906 C-44.46063541 201.6059012 -35.14183526 204.45514103 -23.484375 204.24609375 C-18.20323415 203.87309838 -13.41334036 203.18072924 -9.37890625 199.53515625 C-4.90302256 194.34921736 -4.64701874 190.63828187 -4.7265625 183.98046875 C-5.098865 179.92237154 -6.19849484 177.94517209 -9 175 C-14.77059739 170.27860214 -20.66568773 168.05740855 -27.6875 165.6875 C-29.92541957 164.90633476 -32.16238848 164.12244112 -34.3984375 163.3359375 C-35.50928711 162.94631836 -36.62013672 162.55669922 -37.76464844 162.15527344 C-66.48879683 151.8985069 -91.25511733 140.16493271 -105.25 111.625 C-113.10680535 93.64257921 -114.13122404 71.49011009 -107 53 C-98.20173721 31.67488038 -83.75254056 14.60898431 -62.32836914 5.39208984 C-55.07972099 2.4514504 -47.68722095 0.43812074 -40 -1 C-39.10667969 -1.185625 -38.21335937 -1.37125 -37.29296875 -1.5625 C-25.17284509 -3.17276554 -11.88564773 -2.8154428 0 0 Z " fill="#FCFCFC" transform="translate(306,377)"></path>
<path d="M0 0 C1.15798096 -0.00852997 2.31596191 -0.01705994 3.5090332 -0.02584839 C4.77562775 -0.02494202 6.04222229 -0.02403564 7.34719849 -0.02310181 C8.69764579 -0.02908768 10.04808967 -0.03589337 11.39852905 -0.04345703 C15.06388573 -0.06111839 18.72914901 -0.06581246 22.39454412 -0.0670886 C24.68548522 -0.06851069 26.9764026 -0.07278138 29.2673378 -0.07808304 C37.26239783 -0.09658379 45.25739119 -0.1047536 53.25247192 -0.10317993 C60.70066122 -0.10197852 68.14856074 -0.12308039 75.59667671 -0.15466726 C81.99511351 -0.18083385 88.39345569 -0.19154707 94.79194558 -0.19026911 C98.61179615 -0.18975958 102.43138917 -0.19543734 106.25118637 -0.21662521 C109.84477637 -0.23601432 113.43786333 -0.236128 117.03147125 -0.22159195 C118.97453756 -0.21850974 120.91760394 -0.23517568 122.8605957 -0.25247192 C130.88879387 -0.19459363 134.6153619 0.56244442 140.32034302 6.26742554 C140.59449768 8.47964478 140.59449768 8.47964478 140.6267395 11.26449585 C140.6427269 12.30607849 140.65871429 13.34766113 140.67518616 14.42080688 C140.68054886 15.55097229 140.68591156 16.6811377 140.69143677 17.84555054 C140.70046524 19.00488098 140.70949371 20.16421143 140.71879578 21.3586731 C140.73332764 23.81667488 140.74219226 26.2747156 140.74588013 28.73275757 C140.7577515 32.48847106 140.80689086 36.24252907 140.85745239 39.99789429 C140.86691901 42.38460501 140.8741529 44.77132584 140.87893677 47.15805054 C140.89846909 48.28011902 140.9180014 49.4021875 140.93812561 50.55825806 C140.88786865 59.27540543 140.88786865 59.27540543 137.97293091 62.96176147 C133.7994238 66.5894284 130.60065247 66.39830415 125.23440552 66.42514038 C124.51702209 66.4302211 123.79963867 66.43530182 123.06051636 66.4405365 C121.50380674 66.45123064 119.94708184 66.45985457 118.39035034 66.46665573 C115.92764246 66.47844779 113.4651097 66.49789972 111.00247192 66.51977539 C104.00106607 66.581393 96.99967982 66.63549925 89.99807739 66.66879272 C85.71509224 66.68970753 81.43242914 66.72498048 77.14962769 66.76955032 C75.51656884 66.78373161 73.88345305 66.79243756 72.25033569 66.79560471 C69.96863955 66.8004995 67.68780276 66.82361729 65.40628052 66.85092163 C64.10738892 66.85900848 62.80849731 66.86709534 61.47024536 66.87542725 C58.36660556 67.01222358 58.36660556 67.01222358 56.40272522 68.60975647 C53.85543857 72.51092768 54.8454683 78.16398545 54.8742981 82.66415405 C54.88280168 84.69505373 54.85405922 86.72313244 54.82229614 88.75375366 C54.82294067 90.03572632 54.82358521 91.31769897 54.82424927 92.63851929 C54.82239624 93.81341919 54.82054321 94.98831909 54.81863403 96.19882202 C55.44015684 100.000243 56.28791216 100.9440622 59.32034302 103.26742554 C62.55037093 103.85752037 62.55037093 103.85752037 66.212677 103.74984741 C67.24026123 103.75571617 67.24026123 103.75571617 68.28860474 103.76170349 C69.7721763 103.76766961 71.2558065 103.76452436 72.73934746 103.75328064 C75.08959302 103.73600533 77.43860995 103.74353243 79.78886414 103.75753784 C85.62506623 103.7871763 91.46103302 103.77400236 97.29727173 103.76235962 C102.23064845 103.7541512 107.16348804 103.762114 112.09678841 103.79148865 C114.40866279 103.79857508 116.71958786 103.78191534 119.03138733 103.76437378 C120.45380155 103.77008286 121.8762119 103.77690074 123.2986145 103.78500366 C124.536754 103.78182129 125.77489349 103.77863892 127.05055237 103.77536011 C130.92177296 104.35793374 132.56129833 105.54578927 135.32034302 108.26742554 C136.55523266 110.73720483 136.46716844 112.41004174 136.49734497 115.17269897 C136.51659782 116.70504181 136.51659782 116.70504181 136.53623962 118.26834106 C136.54362656 119.37663269 136.55101349 120.48492432 136.55862427 121.62680054 C136.56669601 122.76393494 136.57476776 123.90106934 136.58308411 125.07266235 C136.596934 127.48359651 136.60765208 129.89455034 136.61550903 132.30551147 C136.63270798 135.98850834 136.67658592 139.67060457 136.72073364 143.35336304 C136.73086155 145.69450226 136.73937734 148.03564913 136.74612427 150.37680054 C136.76363235 151.47699524 136.78114044 152.57718994 136.79917908 153.71072388 C136.78182404 159.84562431 136.59059913 163.69285448 132.32034302 168.26742554 C128.78786898 170.6030447 125.65667712 170.52412525 121.48806763 170.53866577 C120.80955246 170.54389252 120.13103729 170.54911926 119.43196106 170.55450439 C117.96313215 170.56472275 116.49426725 170.57052102 115.02540398 170.57238579 C112.7011464 170.57605328 110.37731403 170.59278815 108.05314636 170.61314392 C101.4468983 170.66853221 94.84058883 170.69929005 88.23416138 170.72372437 C84.18994053 170.73958284 80.14602435 170.76977832 76.10196114 170.80848885 C74.56100251 170.82014889 73.01998947 170.82606928 71.47898674 170.82616997 C69.32674103 170.82636164 67.17533882 170.84459725 65.02322388 170.86679077 C63.79840805 170.87186142 62.57359222 170.87693207 61.31166077 170.88215637 C58.40467253 171.07291574 58.40467253 171.07291574 56.42347717 172.30093384 C54.66831311 175.42976051 54.92440255 178.64033436 54.96731567 182.13192749 C54.96515549 182.93227417 54.9629953 183.73262085 54.96076965 184.55722046 C54.95768117 186.29564268 54.96129303 188.03408667 54.97078323 189.77248573 C54.98450675 192.52601915 54.97809261 195.27883058 54.96594238 198.03236389 C54.93496121 205.86100961 54.93983691 213.68948902 54.95999146 221.51815796 C54.97091918 226.30693442 54.95769482 231.09516972 54.93009567 235.88387108 C54.9246595 237.70707043 54.92870787 239.53032405 54.94249344 241.35347939 C54.96157844 243.90783085 54.95012085 246.46041812 54.93215942 249.01473999 C54.9454982 249.7645665 54.95883698 250.51439301 54.97257996 251.28694153 C54.91199985 255.17158883 54.35173714 257.71154878 51.96960449 260.72071838 C48.40609986 264.14627785 45.96073982 264.39365064 41.20974731 264.46029663 C39.64748665 264.48439102 39.64748665 264.48439102 38.05366516 264.50897217 C33.29564106 264.55348168 28.53775512 264.59447813 23.77957153 264.61752319 C21.27036265 264.63408992 18.76120109 264.66138895 16.25222778 264.69955444 C12.63275696 264.75431915 9.01439111 264.77619686 5.39456177 264.79086304 C4.27563034 264.81353241 3.15669891 264.83620178 2.00386047 264.85955811 C-6.68529482 264.83599458 -6.68529482 264.83599458 -10.37179565 261.85971069 C-13.22510711 258.65475343 -13.80404999 257.28495963 -13.81387806 253.13095379 C-13.8183359 252.25920629 -13.82279375 251.3874588 -13.82738668 250.48929471 C-13.82720231 249.52579392 -13.82701795 248.56229312 -13.826828 247.56959534 C-13.83050469 246.55052623 -13.83418138 245.53145712 -13.83796948 244.48150712 C-13.84903995 241.04450032 -13.85285583 237.60752371 -13.85665894 234.17050171 C-13.86292098 231.71529544 -13.86956754 229.26009013 -13.87657166 226.80488586 C-13.89582336 219.4211319 -13.90640305 212.03738595 -13.91529945 204.65361425 C-13.91968089 201.17802924 -13.92504805 197.70244576 -13.93028831 194.22686195 C-13.94730103 182.67603338 -13.96179592 171.12520575 -13.96903706 159.57436657 C-13.97094701 156.57613817 -13.97286733 153.57790977 -13.974823 150.5796814 C-13.97554861 149.46186469 -13.97554861 149.46186469 -13.97628888 148.32146583 C-13.98459186 136.24545198 -14.00993308 124.16953711 -14.04240368 112.0935665 C-14.0754554 99.70063104 -14.09348408 87.30774591 -14.0966813 74.91476613 C-14.0988481 67.95442368 -14.10762157 60.99422556 -14.13314247 54.03392601 C-14.15708782 47.48814256 -14.16068703 40.94257258 -14.15038109 34.39673805 C-14.14988378 31.99127972 -14.1562611 29.58580891 -14.16993713 27.1803894 C-14.18753676 23.90201291 -14.1806082 20.62458252 -14.16740417 17.34620667 C-14.17837342 16.38939804 -14.18934267 15.43258941 -14.20064431 14.44678658 C-14.16009683 10.29053144 -14.052179 7.89613108 -11.89917278 4.26250172 C-7.94120649 0.70476887 -5.30576392 0.01767405 0 0 Z " fill="#FDFDFD" transform="translate(689.6796569824219,376.7325744628906)"></path>
<path d="M0 0 C1.29208311 3.2732772 1.09993087 6.5024194 1 10 C2.65 9.67 4.3 9.34 6 9 C6.495 10.98 6.495 10.98 7 13 C3.98968256 13.93423645 3.13349732 14.04449911 0 13 C-0.0501123 13.59014893 -0.10022461 14.18029785 -0.15185547 14.78833008 C-0.38405648 17.46390702 -0.62937528 20.13812341 -0.875 22.8125 C-0.95363281 23.74126953 -1.03226562 24.67003906 -1.11328125 25.62695312 C-1.19707031 26.51962891 -1.28085937 27.41230469 -1.3671875 28.33203125 C-1.44050293 29.15421143 -1.51381836 29.9763916 -1.58935547 30.82348633 C-2 33 -2 33 -4 36 C-4.25883783 38.36841797 -4.25883783 38.36841797 -4.15112305 41.03686523 C-4.13414368 42.06827133 -4.11716431 43.09967743 -4.09967041 44.16233826 C-4.05613434 45.84348473 -4.05613434 45.84348473 -4.01171875 47.55859375 C-3.9782132 49.30566368 -3.9782132 49.30566368 -3.94403076 51.08802795 C-3.86866324 54.87147417 -3.77840782 58.65439799 -3.6875 62.4375 C-3.63287465 65.00779834 -3.57891855 67.578111 -3.52563477 70.1484375 C-3.17030378 86.77014151 -2.7499221 103.39079278 -2 120 C-1.19175781 120.1124707 -0.38351562 120.22494141 0.44921875 120.34082031 C1.51785156 120.50163086 2.58648437 120.66244141 3.6875 120.828125 C5.27111328 121.05870605 5.27111328 121.05870605 6.88671875 121.29394531 C13.00568794 122.68165382 17.16081267 126.2056709 21.5625 130.5 C24.2802998 137.1172517 24.01736902 145.20636906 22 152.0625 C18.80277867 163.34821411 21.55417532 171.47853118 26.95703125 181.31640625 C27.31104004 181.94949707 27.66504883 182.58258789 28.02978516 183.23486328 C29.27766806 185.50516862 30.37936391 187.82341155 31.4375 190.1875 C31.72496094 190.82042969 32.01242187 191.45335937 32.30859375 192.10546875 C35.94291338 202.06391521 34.8447181 214.23977344 31.375 224.05859375 C26.95726703 233.50902821 19.5708549 238.41523802 10 242 C-5.45345041 246.85102367 -24.23193354 247.32950438 -38.875 239.6875 C-40.27035281 238.82371016 -41.64690793 237.9285926 -43 237 C-43.95519531 236.35417969 -43.95519531 236.35417969 -44.9296875 235.6953125 C-51.97654212 230.34212251 -54.9523682 222.38897609 -57 214 C-58.18807922 201.46990873 -55.96325151 191.77294037 -49.49707031 181.12524414 C-43.06422894 170.48486107 -42.81766091 162.64732753 -45.5390625 150.5390625 C-46.62577008 144.5529614 -47.28127557 137.74876865 -44.5625 132.125 C-40.22909859 125.93442656 -33.85391025 123.00159992 -26.6875 121.328125 C-25.61886719 121.07450195 -24.55023438 120.82087891 -23.44921875 120.55957031 C-22.23685547 120.28258301 -22.23685547 120.28258301 -21 120 C-20.73636719 111.41031758 -20.47541118 102.82055947 -20.21769714 94.23069763 C-20.09789775 90.24034708 -19.97724088 86.25002663 -19.85449219 82.25976562 C-19.73564936 78.39537681 -19.61923143 74.53092131 -19.50436401 70.66641235 C-19.46055136 69.2059172 -19.41592391 67.74544622 -19.37039185 66.28500366 C-19.222299 61.52373223 -19.09890426 56.76254417 -19 52 C-18.9833429 51.27306946 -18.96668579 50.54613892 -18.94952393 49.79718018 C-18.90380409 47.60567606 -18.87348733 45.41447609 -18.84765625 43.22265625 C-18.82840088 41.93238525 -18.80914551 40.64211426 -18.78930664 39.31274414 C-18.99077692 36.14501506 -19.47068361 34.68350333 -21 32 C-21.125 28.75 -21.125 28.75 -21 26 C-23.97 26.495 -23.97 26.495 -27 27 C-27.495 24.525 -27.495 24.525 -28 22 C-26.0625 21.4375 -26.0625 21.4375 -24 21 C-23.67 21.33 -23.34 21.66 -23 22 C-22.67 19.03 -22.34 16.06 -22 13 C-24.97 13.495 -24.97 13.495 -28 14 C-28.33 12.68 -28.66 11.36 -29 10 C-27.35 9.67 -25.7 9.34 -24 9 C-23.9175 7.741875 -23.835 6.48375 -23.75 5.1875 C-23.25262467 1.27066929 -23.25262467 1.27066929 -21.25 -0.875 C-20.13625 -1.431875 -20.13625 -1.431875 -19 -2 C-18.236875 -2.4125 -17.47375 -2.825 -16.6875 -3.25 C-10.81826691 -4.88792551 -5.13735978 -2.87692148 0 0 Z " fill="#0E0D0E" transform="translate(430,395)"></path>
<path d="M0 0 C3.95050045 2.07170618 6.45046062 4.09051981 7.96484375 8.27734375 C8.66770039 12.90328797 9.04574569 17.24885111 6.79296875 21.4765625 C2.81949547 26.36147681 -0.65076552 27.9255484 -6.84765625 28.83984375 C-11.58564753 28.74976787 -14.12790264 26.22012256 -17.46875 23.1015625 C-20.73868984 19.29342807 -20.42467485 14.79418767 -20.38671875 10.01171875 C-19.83042025 5.68495262 -18.27041271 4.14495743 -15.03515625 1.27734375 C-10.33384336 -1.5125524 -5.16546702 -1.83418695 0 0 Z " fill="#DA5D80" transform="translate(425.03515625,541.72265625)"></path>
<path d="M0 0 C5.65625 -0.2890625 5.65625 -0.2890625 8.75 2.3125 C12.82577468 7.18078642 13.55664858 9.96874001 13.44921875 16.19140625 C12.83392867 20.03830683 11.39074722 22.11181394 8.66796875 24.828125 C7 26 7 26 4.125 26.4375 C3.42375 26.293125 2.7225 26.14875 2 26 C-0.32492213 20.4897515 -0.23374511 15.48887115 -0.125 9.625 C-0.11597656 8.69816406 -0.10695313 7.77132812 -0.09765625 6.81640625 C-0.07422937 4.54399923 -0.04142748 2.2721382 0 0 Z " fill="#F0B62B" transform="translate(420,542)"></path>
<path d="M0 0 C1.16781006 0.00523682 2.33562012 0.01047363 3.53881836 0.01586914 C4.79887695 0.0190918 6.05893555 0.02231445 7.35717773 0.02563477 C8.6976732 0.03399136 10.03816799 0.04245632 11.37866211 0.05102539 C12.72306153 0.05603879 14.06746271 0.06060197 15.41186523 0.06469727 C18.71334151 0.07653051 22.01473014 0.09301568 25.31616211 0.11352539 C25.69834978 1.76967196 26.03011313 3.43809563 26.31616211 5.11352539 C25.31616211 6.11352539 25.31616211 6.11352539 22.63232422 6.22705078 C21.46451416 6.22181396 20.2967041 6.21657715 19.09350586 6.21118164 C17.83344727 6.20795898 16.57338867 6.20473633 15.27514648 6.20141602 C13.93465102 6.19305942 12.59415623 6.18459446 11.25366211 6.17602539 C9.90926269 6.17101199 8.56486151 6.16644881 7.22045898 6.16235352 C3.9189827 6.15052027 0.61759408 6.1340351 -2.68383789 6.11352539 C-3.06602556 4.45737882 -3.39778891 2.78895515 -3.68383789 1.11352539 C-2.68383789 0.11352539 -2.68383789 0.11352539 0 0 Z " fill="#F8F8F8" transform="translate(407.683837890625,592.886474609375)"></path>
<path d="M0 0 C2.97 0 5.94 0 9 0 C8.01 0.33 7.02 0.66 6 1 C6.13820269 4.3128652 6.28683778 7.62517989 6.4375 10.9375 C6.47681641 11.88302734 6.51613281 12.82855469 6.55664062 13.80273438 C6.59853516 14.70185547 6.64042969 15.60097656 6.68359375 16.52734375 C6.72025146 17.35999756 6.75690918 18.19265137 6.79467773 19.05053711 C6.79367103 21.00338858 6.79367103 21.00338858 8 22 C8.04063832 23.66617115 8.042721 25.33388095 8 27 C8.99 27.33 9.98 27.66 11 28 C8.36 28 5.72 28 3 28 C-0.21314861 21.91947468 -0.36875119 16.86174336 -0.1875 10.0625 C-0.17396484 9.09248047 -0.16042969 8.12246094 -0.14648438 7.12304688 C-0.11139189 4.74845519 -0.057594 2.3741525 0 0 Z " fill="#ED884E" transform="translate(414,541)"></path>
<path d="M0 0 C0.66 0.66 1.32 1.32 2 2 C1.34 2.66 0.68 3.32 0 4 C-0.37268887 6.91188245 -0.37268887 6.91188245 -0.4140625 10.3203125 C-0.45273437 11.57714844 -0.49140625 12.83398438 -0.53125 14.12890625 C-0.5621875 15.44761719 -0.593125 16.76632812 -0.625 18.125 C-0.66318029 19.46486918 -0.70223206 20.80471383 -0.7421875 22.14453125 C-0.8367203 25.42954619 -0.92227156 28.71455138 -1 32 C-1.66 32 -2.32 32 -3 32 C-3.07420211 27.92497206 -3.1286257 23.85020608 -3.16479492 19.7746582 C-3.17987397 18.38852081 -3.2003405 17.00243106 -3.22631836 15.61645508 C-3.26273716 13.62341854 -3.27813018 11.63003277 -3.29296875 9.63671875 C-3.31653442 7.83787231 -3.31653442 7.83787231 -3.34057617 6.00268555 C-3 3 -3 3 -1.48168945 1.08520508 C-0.99273193 0.7270874 -0.50377441 0.36896973 0 0 Z " fill="#151615" transform="translate(747,444)"></path>
<path d="M0 0 C1.98 0 3.96 0 6 0 C5.01 0.66 4.02 1.32 3 2 C2.5835465 4.42099355 2.5835465 4.42099355 2.70703125 7.2265625 C2.71669922 8.2578125 2.72636719 9.2890625 2.73632812 10.3515625 C2.76146484 11.43179688 2.78660156 12.51203125 2.8125 13.625 C2.82603516 14.71296875 2.83957031 15.8009375 2.85351562 16.921875 C2.88895246 19.61507409 2.93835669 22.30729374 3 25 C3.66 25.33 4.32 25.66 5 26 C4.01 26 3.02 26 2 26 C-0.32492213 20.4897515 -0.23374511 15.48887115 -0.125 9.625 C-0.11597656 8.69816406 -0.10695313 7.77132812 -0.09765625 6.81640625 C-0.07422937 4.54399923 -0.04142748 2.2721382 0 0 Z " fill="#F0A138" transform="translate(420,542)"></path>
<path d="M0 0 C0.66 0 1.32 0 2 0 C2.0501123 0.57443848 2.10022461 1.14887695 2.15185547 1.74072266 C2.38544563 4.36953886 2.63012958 6.99721151 2.875 9.625 C2.95363281 10.52863281 3.03226562 11.43226563 3.11328125 12.36328125 C3.57019973 17.17849903 4.20520265 21.46021846 6 26 C5.01 26 4.02 26 3 26 C-0.0097598 20.1779712 -0.38006704 15.55546548 -0.1875 9.0625 C-0.17396484 8.18787109 -0.16042969 7.31324219 -0.14648438 6.41210938 C-0.11144109 4.27446914 -0.05764541 2.13715016 0 0 Z " fill="#E97069" transform="translate(414,543)"></path>
<path d="M0 0 C0.33 0 0.66 0 1 0 C1 2.64 1 5.28 1 8 C-0.98 8.33 -2.96 8.66 -5 9 C-5.33 7.35 -5.66 5.7 -6 4 C-4.0625 3.4375 -4.0625 3.4375 -2 3 C-1.67 3.33 -1.34 3.66 -1 4 C-0.67 2.68 -0.34 1.36 0 0 Z " fill="#373838" transform="translate(408,413)"></path>
<path d="M0 0 C0.33 0 0.66 0 1 0 C1 1.98 1 3.96 1 6 C-0.98 6.33 -2.96 6.66 -5 7 C-5.33 5.68 -5.66 4.36 -6 3 C-5.195625 2.87625 -4.39125 2.7525 -3.5625 2.625 C-2.716875 2.41875 -1.87125 2.2125 -1 2 C-0.67 1.34 -0.34 0.68 0 0 Z " fill="#313231" transform="translate(407,402)"></path>
<path d="M0 0 C1.32 0 2.64 0 4 0 C4 1.65 4 3.3 4 5 C2.35 5.33 0.7 5.66 -1 6 C-1.042721 4.33388095 -1.04063832 2.66617115 -1 1 C-0.67 0.67 -0.34 0.34 0 0 Z " fill="#272726" transform="translate(432,416)"></path>
<path d="M0 0 C2.625 0.375 2.625 0.375 5 1 C4.67 2.32 4.34 3.64 4 5 C1.13275314 4.42655063 0.1385485 4.1385485 -2 2 C-1.34 1.34 -0.68 0.68 0 0 Z " fill="#1B1B1B" transform="translate(432,404)"></path>
<path d="M0 0 C2.01822917 0.06510417 4.03645833 0.13020833 6.0546875 0.1953125 C6.0546875 0.5253125 6.0546875 0.8553125 6.0546875 1.1953125 C4.415 1.6284375 4.415 1.6284375 2.7421875 2.0703125 C-0.98545095 3.01424454 -0.98545095 3.01424454 -3.9453125 5.1953125 C-3.9453125 1.81964504 -3.57781023 0.35921789 0 0 Z " fill="#191A19" transform="translate(749.9453125,546.8046875)"></path>
</svg></svg><style>@media (prefers-color-scheme: light) { :root { filter: none; } }
@media (prefers-color-scheme: dark) { :root { filter: none; } }
</style></svg>